# Blender 4.4.1
# www.blender.org
mtllib tank_electronics.mtl
o tank_3d.004
v 4.256000 24.588696 -52.931702
v 19.661301 24.588696 -52.931702
v 19.661301 24.178696 -52.931702
v 4.256000 24.178696 -52.931702
v 4.256000 24.178698 -36.976501
v 4.256000 24.588697 -36.976501
v 19.661301 24.588697 -36.976501
v 19.661301 24.178698 -36.976501
v 4.466000 24.707697 -52.721699
v 19.451300 24.707697 -52.721699
v 4.466000 24.707699 -37.186501
v 19.451300 24.707699 -37.186501
v 18.640800 25.286695 -42.735203
v 5.276500 25.286695 -42.735203
v 5.276500 25.286695 -37.997005
v 18.640800 25.286695 -37.997005
v 4.746500 25.595596 -52.441204
v 19.170799 25.595596 -52.441204
v 19.170799 24.625597 -52.441200
v 4.746500 24.625597 -52.441200
v 4.746500 24.625597 -43.826199
v 4.746500 25.595596 -43.826202
v 4.746500 25.595596 -48.135105
v 4.746500 24.625597 -48.129902
v 19.170799 25.595596 -43.826202
v 19.170799 24.625597 -43.826199
v 5.257500 25.595596 -51.930202
v 18.659800 25.595596 -51.930202
v 5.257500 25.595596 -51.384403
v 18.659800 25.595596 -44.337204
v 5.257500 25.595596 -44.337204
v 18.659800 25.595596 -44.882904
v 5.257500 25.595596 -47.903202
v 18.659800 25.595596 -47.903202
v 18.659800 25.595596 -48.364204
v 5.257500 25.595596 -48.364204
v 18.659800 25.595596 -49.370903
v 5.257500 25.595596 -49.370903
v 5.257500 25.595596 -48.909904
v 18.659800 25.595596 -48.909904
v 18.659800 25.595596 -50.377705
v 5.257500 25.595596 -50.377705
v 5.257500 25.595596 -49.916702
v 18.659800 25.595596 -49.916702
v 18.659800 25.595596 -46.350704
v 5.257500 25.595596 -46.350704
v 5.257500 25.595596 -45.889706
v 18.659800 25.595596 -45.889706
v 5.257500 25.595596 -44.882904
v 18.659800 25.595596 -45.343903
v 5.257500 25.595596 -45.343903
v 5.257500 25.595596 -46.896404
v 18.659800 25.595596 -46.896404
v 18.659800 25.595596 -47.357403
v 5.257500 25.595596 -47.357403
v 5.257500 25.595596 -50.923405
v 18.659800 25.595596 -50.923405
v 18.659800 25.595596 -51.384403
v 5.257500 24.775597 -48.364201
v 5.257500 24.775597 -48.909901
v 18.659800 24.775597 -48.364201
v 18.659800 24.775597 -48.909901
v 18.659800 24.775597 -49.916698
v 18.659800 24.775597 -49.370899
v 5.257500 24.775597 -49.916698
v 5.257500 24.775597 -49.370899
v 18.659800 24.775597 -45.889702
v 18.659800 24.775597 -45.343899
v 5.257500 24.775597 -45.889702
v 5.257500 24.775597 -45.343899
v 5.257500 24.775597 -44.337200
v 5.257500 24.775597 -44.882900
v 18.659800 24.775597 -44.337200
v 18.659800 24.775597 -44.882900
v 18.659800 24.775597 -47.903198
v 18.659800 24.775597 -47.357399
v 5.257500 24.775597 -47.903198
v 5.257500 24.775597 -47.357399
v 5.257500 24.775597 -46.350700
v 5.257500 24.775597 -46.896400
v 18.659800 24.775597 -46.350700
v 18.659800 24.775597 -46.896400
v 18.659800 24.775597 -51.930199
v 18.659800 24.775597 -51.384499
v 5.257500 24.775597 -51.930199
v 5.257500 24.775597 -51.384399
v 5.257500 24.775597 -50.377701
v 5.257500 24.775597 -50.923401
v 18.659800 24.775597 -50.377701
v 18.659800 24.775597 -50.923401
v 18.850800 24.707699 -37.786999
v 5.066500 24.707699 -37.786999
v 18.850800 24.707697 -42.945202
v 5.066500 25.117699 -37.786999
v 5.066500 25.117697 -42.945202
v 5.066500 24.707697 -42.945202
v 18.850800 25.117699 -37.786999
v 18.850800 25.117697 -42.945202
v 18.008301 24.822199 -37.550999
v 14.133400 24.822199 -37.550999
v 14.133400 24.822199 -36.604698
v 18.008301 24.822199 -36.604698
v 18.008301 24.372198 -36.154701
v 14.133400 24.372198 -36.154701
v 14.133400 24.171198 -36.154701
v 18.008301 24.171198 -36.154701
v 18.008301 24.171198 -37.550999
v 14.133400 24.171198 -37.550999
v 9.484800 24.822199 -37.550999
v 5.609900 24.822199 -37.550999
v 5.609900 24.822199 -36.604698
v 9.484800 24.822199 -36.604698
v 9.484800 24.372198 -36.154701
v 5.609900 24.372198 -36.154701
v 5.609900 24.171198 -36.154701
v 9.484800 24.171198 -36.154701
v 9.484800 24.171198 -37.550999
v 5.609900 24.171198 -37.550999
v 19.170799 24.625696 -48.104198
v 19.170799 25.595596 -48.122704
vn -0.0000 -0.0000 -1.0000
vn -1.0000 -0.0000 -0.0000
vn -0.0000 -0.0000 1.0000
vn 1.0000 -0.0000 -0.0000
vn -0.0000 0.8700 -0.4930
vn -0.4097 0.9122 -0.0000
vn -0.0000 0.8700 0.4930
vn 0.4097 0.9122 -0.0000
vn -0.0000 1.0000 -0.0000
vn -0.0000 0.0001 -1.0000
vn -0.5378 0.8431 -0.0000
vn -0.0000 0.7791 0.6269
vn 0.5378 0.8431 -0.0000
vn -0.0000 0.7791 -0.6269
vn -0.0000 0.7071 0.7071
vt 0.894300 0.498300
vt 0.894300 0.457800
vt 0.895400 0.457800
vt 0.895400 0.498300
vt 0.852300 0.499400
vt 0.852300 0.498300
vt 0.894300 0.499400
vt 0.852300 0.457800
vt 0.851300 0.498300
vt 0.851300 0.457800
vt 0.894300 0.456700
vt 0.852300 0.456700
vt 0.893700 0.497800
vt 0.893700 0.458400
vt 0.852900 0.497800
vt 0.852900 0.458400
vt 0.959500 0.566700
vt 0.959500 0.531200
vt 0.972100 0.531200
vt 0.972100 0.566700
vt 0.954100 0.451400
vt 0.954100 0.413900
vt 0.956600 0.413900
vt 0.956600 0.451400
vt 0.931700 0.453900
vt 0.931700 0.451400
vt 0.942900 0.451400
vt 0.942900 0.453900
vt 0.931800 0.413900
vt 0.929200 0.451400
vt 0.929200 0.413900
vt 0.952800 0.450100
vt 0.952800 0.415300
vt 0.951300 0.450100
vt 0.933000 0.415300
vt 0.933000 0.450100
vt 0.934500 0.415300
vt 0.942300 0.450100
vt 0.942300 0.415300
vt 0.943500 0.415300
vt 0.943500 0.450100
vt 0.946100 0.415300
vt 0.946100 0.450100
vt 0.944900 0.450100
vt 0.944900 0.415300
vt 0.948700 0.415300
vt 0.948700 0.450100
vt 0.947500 0.450100
vt 0.947500 0.415300
vt 0.938300 0.415300
vt 0.938300 0.450100
vt 0.937100 0.450100
vt 0.937100 0.415300
vt 0.934500 0.450100
vt 0.935600 0.415300
vt 0.935600 0.450100
vt 0.939700 0.450100
vt 0.939700 0.415300
vt 0.940900 0.415300
vt 0.940900 0.450100
vt 0.950100 0.450100
vt 0.950100 0.415300
vt 0.951300 0.415300
vt 0.748300 0.901700
vt 0.749700 0.901700
vt 0.749700 0.903900
vt 0.748300 0.903900
vt 0.713100 0.901700
vt 0.713100 0.903900
vt 0.711700 0.901700
vt 0.711700 0.903900
vt 0.676500 0.901700
vt 0.676500 0.903900
vt 0.710400 0.925800
vt 0.709000 0.925800
vt 0.709000 0.923700
vt 0.710400 0.923700
vt 0.745600 0.925800
vt 0.745600 0.923700
vt 0.747000 0.925800
vt 0.747000 0.923700
vt 0.673800 0.925800
vt 0.673800 0.923700
vt 0.848500 0.328400
vt 0.848500 0.329800
vt 0.846400 0.329800
vt 0.846400 0.328400
vt 0.848500 0.293200
vt 0.846400 0.293200
vt 0.848500 0.291800
vt 0.846400 0.291800
vt 0.848500 0.365000
vt 0.846400 0.365000
vt 0.747900 0.919100
vt 0.746500 0.919100
vt 0.746500 0.916900
vt 0.747900 0.916900
vt 0.709900 0.919100
vt 0.674700 0.919100
vt 0.674700 0.916900
vt 0.709900 0.916900
vt 0.711300 0.919100
vt 0.711300 0.916900
vt 0.712200 0.911800
vt 0.710800 0.911800
vt 0.710800 0.909700
vt 0.712200 0.909700
vt 0.747400 0.911800
vt 0.747400 0.909700
vt 0.748800 0.911800
vt 0.748800 0.909700
vt 0.675600 0.911800
vt 0.675600 0.909700
vt 0.708800 0.932100
vt 0.707400 0.932100
vt 0.707400 0.930000
vt 0.708800 0.930000
vt 0.744000 0.932100
vt 0.744000 0.930000
vt 0.745400 0.932100
vt 0.745400 0.930000
vt 0.672200 0.932100
vt 0.672200 0.930000
vt 0.855100 0.328400
vt 0.855100 0.329800
vt 0.853000 0.329800
vt 0.853000 0.328400
vt 0.855100 0.293200
vt 0.853000 0.293200
vt 0.855100 0.291800
vt 0.853000 0.291800
vt 0.855100 0.365000
vt 0.853000 0.365000
vt 0.840500 0.291400
vt 0.840500 0.290000
vt 0.842600 0.290000
vt 0.842600 0.291400
vt 0.840500 0.326600
vt 0.842600 0.326600
vt 0.840500 0.328100
vt 0.842600 0.328100
vt 0.840500 0.363200
vt 0.842600 0.363200
vt 0.854500 0.459900
vt 0.854500 0.496200
vt 0.868000 0.459900
vt 0.972700 0.530600
vt 0.959000 0.530600
vt 0.959000 0.529600
vt 0.972700 0.529600
vt 0.972700 0.567200
vt 0.973800 0.530600
vt 0.973800 0.567200
vt 0.959000 0.567200
vt 0.972700 0.568300
vt 0.959000 0.568300
vt 0.957900 0.567200
vt 0.957900 0.530600
vt 0.581500 0.400800
vt 0.593300 0.400800
vt 0.593300 0.403700
vt 0.581500 0.403700
vt 0.581600 0.405200
vt 0.593500 0.405200
vt 0.593500 0.405800
vt 0.581600 0.405800
vt 0.580100 0.405000
vt 0.579500 0.405000
vt 0.579500 0.400800
vt 0.594700 0.405000
vt 0.595300 0.400800
vt 0.595300 0.405000
vt 0.799700 0.934600
vt 0.810100 0.934600
vt 0.810100 0.937200
vt 0.799700 0.937200
vt 0.799700 0.938400
vt 0.810100 0.938400
vt 0.810100 0.938900
vt 0.799700 0.938900
vt 0.798500 0.938400
vt 0.798000 0.938400
vt 0.798000 0.934600
vt 0.811300 0.938400
vt 0.811900 0.934600
vt 0.811900 0.938400
vt 0.799700 0.932900
vt 0.810100 0.932900
vt 0.868000 0.496200
vt 0.931700 0.411400
vt 0.942800 0.411400
vt 0.942900 0.413900
vt 0.954100 0.453900
vt 0.954100 0.411400
s 1
usemtl orig_01___Default
f 1/1/1 2/2/1 3/3/1 4/4/1
f 5/5/2 6/6/2 1/1/2 4/7/2
f 7/8/3 6/6/3 5/9/3 8/10/3
f 3/11/4 2/2/4 7/8/4 8/12/4
f 9/13/5 10/14/5 2/2/5 1/1/5
f 6/6/6 11/15/6 9/13/6 1/1/6
f 12/16/7 11/15/7 6/6/7 7/8/7
f 2/2/8 10/14/8 12/16/8 7/8/8
f 13/17/9 14/18/9 15/19/9 16/20/9
f 17/21/1 18/22/1 19/23/1 20/24/1
f 21/25/2 22/26/2 23/27/2 24/28/2
f 25/29/3 22/26/3 21/30/3 26/31/3
f 18/22/9 17/21/9 27/32/9 28/33/9
f 17/21/9 29/34/9 27/32/9
f 22/26/9 25/29/9 30/35/9 31/36/9
f 25/29/9 32/37/9 30/35/9
f 33/38/9 34/39/9 35/40/9 36/41/9
f 37/42/9 38/43/9 39/44/9 40/45/9
f 41/46/9 42/47/9 43/48/9 44/49/9
f 45/50/9 46/51/9 47/52/9 48/53/9
f 49/54/9 32/37/9 50/55/9 51/56/9
f 52/57/9 53/58/9 54/59/9 55/60/9
f 56/61/9 57/62/9 58/63/9 29/34/9
f 59/64/4 60/65/4 39/66/4 36/67/4
f 61/68/1 59/64/1 36/67/1 35/69/1
f 62/70/2 61/68/2 35/69/2 40/71/2
f 60/72/3 62/70/3 40/71/3 39/73/3
f 63/74/2 64/75/2 37/76/2 44/77/2
f 65/78/3 63/74/3 44/77/3 43/79/3
f 66/80/4 65/78/4 43/79/4 38/81/4
f 64/75/1 66/82/1 38/83/1 37/76/1
f 67/84/2 68/85/2 50/86/2 48/87/2
f 69/88/3 67/84/3 48/87/3 47/89/3
f 70/90/4 69/88/4 47/89/4 51/91/4
f 68/85/1 70/92/1 51/93/1 50/86/1
f 71/94/4 72/95/4 49/96/4 31/97/4
f 73/98/1 71/99/1 31/100/1 30/101/1
f 74/102/2 73/98/2 30/101/2 32/103/2
f 72/95/3 74/102/3 32/103/3 49/96/3
f 75/104/2 76/105/2 54/106/2 34/107/2
f 77/108/3 75/104/3 34/107/3 33/109/3
f 78/110/4 77/108/4 33/109/4 55/111/4
f 76/105/1 78/112/1 55/113/1 54/106/1
f 79/114/4 80/115/4 52/116/4 46/117/4
f 81/118/1 79/114/1 46/117/1 45/119/1
f 82/120/2 81/118/2 45/119/2 53/121/2
f 80/115/3 82/122/3 53/123/3 52/116/3
f 83/124/2 84/125/2 58/126/2 28/127/2
f 85/128/3 83/124/3 28/127/3 27/129/3
f 86/130/4 85/128/4 27/129/4 29/131/4
f 84/125/10 86/132/10 29/133/10 58/126/10
f 87/134/4 88/135/4 56/136/4 42/137/4
f 89/138/1 87/134/1 42/137/1 41/139/1
f 90/140/2 89/138/2 41/139/2 57/141/2
f 88/142/3 90/140/3 57/141/3 56/143/3
f 91/144/9 92/145/9 11/15/9 12/16/9
f 12/16/9 10/14/9 93/146/9 91/144/9
f 94/147/2 95/148/2 96/149/2 92/150/2
f 97/151/3 94/147/3 92/152/3 91/153/3
f 98/154/4 97/151/4 91/155/4 93/156/4
f 95/148/1 98/154/1 93/157/1 96/158/1
f 15/19/11 14/18/11 95/148/11 94/147/11
f 16/20/12 15/19/12 94/147/12 97/151/12
f 13/17/13 16/20/13 97/151/13 98/154/13
f 14/18/14 13/17/14 98/154/14 95/148/14
f 99/159/9 100/160/9 101/161/9 102/162/9
f 103/163/3 104/164/3 105/165/3 106/166/3
f 99/159/4 103/167/4 106/168/4 107/169/4
f 104/170/2 100/160/2 108/171/2 105/172/2
f 103/163/15 102/162/15 101/161/15 104/164/15
f 107/169/1 108/169/1 100/159/1 99/159/1
f 109/173/9 110/174/9 111/175/9 112/176/9
f 113/177/3 114/178/3 115/179/3 116/180/3
f 109/173/4 113/181/4 116/182/4 117/183/4
f 114/184/2 110/174/2 118/185/2 115/186/2
f 113/177/15 112/176/15 111/175/15 114/178/15
f 117/187/1 118/188/1 110/174/1 109/173/1
f 109/173/4 112/176/4 113/181/4
f 114/184/2 111/175/2 110/174/2
f 104/170/2 101/161/2 100/160/2
f 99/159/4 102/162/4 103/167/4
f 11/15/9 92/145/9 96/189/9 9/13/9
f 9/13/9 96/189/9 93/146/9 10/14/9
f 25/29/4 26/190/4 119/191/4 120/192/4
f 25/29/9 50/55/9 32/37/9
f 25/29/9 48/53/9 50/55/9
f 120/192/9 35/40/9 34/39/9
f 120/192/9 40/45/9 35/40/9
f 120/192/9 34/39/9 54/59/9
f 120/192/9 54/59/9 53/58/9
f 120/192/9 53/58/9 45/50/9
f 25/29/9 120/192/9 45/50/9 48/53/9
f 120/192/9 37/42/9 40/45/9
f 120/192/9 44/49/9 37/42/9
f 120/192/9 18/22/9 41/46/9 44/49/9
f 18/22/9 28/33/9 58/63/9
f 18/22/9 58/63/9 57/62/9
f 18/22/9 57/62/9 41/46/9
f 17/21/2 20/193/2 24/28/2 23/27/2
f 17/21/9 56/61/9 29/34/9
f 17/21/9 42/47/9 56/61/9
f 23/27/9 43/48/9 42/47/9 17/21/9
f 23/27/9 33/38/9 36/41/9
f 23/27/9 55/60/9 33/38/9
f 23/27/9 36/41/9 39/44/9
f 23/27/9 39/44/9 38/43/9
f 23/27/9 38/43/9 43/48/9
f 23/27/9 52/57/9 55/60/9
f 23/27/9 46/51/9 52/57/9
f 23/27/9 22/26/9 47/52/9 46/51/9
f 22/26/9 51/56/9 47/52/9
f 22/26/9 31/36/9 49/54/9
f 22/26/9 49/54/9 51/56/9
f 119/191/4 19/194/4 18/22/4 120/192/4
