<svg xmlns="http://www.w3.org/2000/svg" 
xmlns:xlink="http://www.w3.org/1999/xlink" 
aria-hidden="true" 
role="img" 
class="iconify iconify--logos" 
width="32" 
height="32" 
preserveAspectRatio="xMidYMid meet" 
viewBox="0 0 32 32">
<g fill="#62ea8b" stroke="#fff" stroke-width="1" stroke-opacity="0.25">
<path d="M26.7 2.3c-.4-.4-1-.4-1.4 0s-.4 1 0 1.4c3.5 3.5 3.5 9.1 0 12.6-.4.4-.4 1 0 1.4.2.2.5.3.7.3s.5-.1.7-.3c4.3-4.2 4.3-11.2 0-15.4"/>
<path d="M22 12.6c-.4.4-.4 1 0 1.4.2.2.5.3.7.3s.5-.1.7-.3c1.1-1.1 1.7-2.5 1.6-4.1 0-1.5-.7-3-1.8-4.1-.4-.4-1-.4-1.4 0s-.4 1 0 1.4c1.5 1.5 1.6 4 .2 5.4M6.7 16.3c-3.5-3.5-3.5-9.1 0-12.6.4-.4.4-1 0-1.4s-1-.4-1.4 0C1 6.5 1 13.5 5.3 17.7c.2.2.4.3.7.3s.5-.1.7-.3c.4-.4.4-1 0-1.4"/>
<path d="M8.8 14.2c.2.2.5.3.7.3s.5-.1.7-.3c.4-.4.4-1 0-1.4-1.5-1.5-1.6-4-.2-5.4.4-.4.4-1 0-1.4s-1-.4-1.4 0C7.5 7.1 7 8.5 7 10.1c0 1.5.7 3 1.8 4.1M24 28h-2.2l-4-15.6c.7-.5 1.2-1.4 1.2-2.4 0-1.7-1.3-3-3-3s-3 1.3-3 3c0 1 .5 1.9 1.3 2.4l-4 15.6H8c-.6 0-1 .4-1 1s.4 1 1 1h16c.6 0 1-.4 1-1s-.4-1-1-1m-6.4-8h-3.3l1.6-6.3zm-3.7 2h4.2l1.6 6h-7.4z"/>
</g>
</svg>